<svg width="18" height="18" viewBox="0 0 18 18" fill="none" xmlns="http://www.w3.org/2000/svg">
<rect width="18" height="18" rx="2" fill="#2563EB"/>
<g clip-path="url(#clip0_8_49)">
<path d="M8.99999 3.16667L9.06824 3.17076C9.19845 3.18611 9.31969 3.24488 9.4124 3.33759C9.50511 3.43031 9.56389 3.55155 9.57924 3.68176L9.58333 3.75001V6.08334L9.58624 6.17084C9.60712 6.44861 9.72669 6.70974 9.92333 6.90702C10.12 7.10431 10.3807 7.22473 10.6584 7.24651L10.75 7.25001H13.0833L13.1516 7.25409C13.2818 7.26944 13.403 7.32822 13.4957 7.42093C13.5884 7.51364 13.6472 7.63488 13.6626 7.76509L13.6667 7.83334V13.0833C13.6667 13.5297 13.4961 13.9592 13.1899 14.284C12.8837 14.6088 12.4649 14.8042 12.0193 14.8304L11.9167 14.8333H6.08333C5.63696 14.8334 5.20744 14.6628 4.88268 14.3566C4.55791 14.0504 4.36243 13.6316 4.33624 13.186L4.33333 13.0833V4.91667C4.3333 4.4703 4.50385 4.04079 4.81008 3.71602C5.1163 3.39125 5.53506 3.19578 5.98066 3.16959L6.08333 3.16667H8.99999Z" fill="white"/>
<path d="M13.0833 6.08334H10.75L10.7494 3.74942L13.0833 6.08334Z" fill="white"/>
</g>
<defs>
<clipPath id="clip0_8_49">
<rect width="14" height="14" fill="white" transform="translate(2 2)"/>
</clipPath>
</defs>
</svg>
