<svg width="97" height="18" viewBox="0 0 97 18" fill="none" xmlns="http://www.w3.org/2000/svg">
<path d="M29.8686 8.38281H27.6911C27.6513 8.10109 27.5701 7.85085 27.4474 7.6321C27.3248 7.41004 27.1674 7.22112 26.9751 7.06534C26.7829 6.90956 26.5608 6.79025 26.3089 6.70739C26.0604 6.62453 25.7902 6.5831 25.4986 6.5831C24.9716 6.5831 24.5125 6.71402 24.1214 6.97585C23.7304 7.23437 23.4271 7.61222 23.2116 8.10938C22.9962 8.60322 22.8885 9.20312 22.8885 9.90909C22.8885 10.6349 22.9962 11.2448 23.2116 11.7386C23.4304 12.2325 23.7353 12.6054 24.1264 12.8572C24.5175 13.1091 24.9699 13.2351 25.4837 13.2351C25.772 13.2351 26.0388 13.197 26.2841 13.1207C26.5327 13.0445 26.7531 12.9335 26.9453 12.7876C27.1375 12.6385 27.2966 12.4579 27.4226 12.2457C27.5518 12.0336 27.6413 11.7917 27.6911 11.5199L29.8686 11.5298C29.8123 11.9972 29.6714 12.4479 29.446 12.8821C29.224 13.313 28.924 13.6991 28.5462 14.0405C28.1716 14.3786 27.7242 14.647 27.2038 14.8459C26.6868 15.0414 26.1018 15.1392 25.4489 15.1392C24.5407 15.1392 23.7287 14.9337 23.0128 14.5227C22.3002 14.1117 21.7367 13.5168 21.3224 12.7379C20.9115 11.959 20.706 11.0161 20.706 9.90909C20.706 8.79877 20.9148 7.85417 21.3324 7.07528C21.75 6.2964 22.3168 5.70312 23.0327 5.29545C23.7486 4.88447 24.554 4.67898 25.4489 4.67898C26.0388 4.67898 26.5857 4.76184 27.0895 4.92756C27.5966 5.09328 28.0457 5.33523 28.4368 5.65341C28.8279 5.96828 29.1461 6.3544 29.3913 6.81179C29.6399 7.26918 29.799 7.79285 29.8686 8.38281ZM33.4904 4.81818V15H31.3725V4.81818H33.4904ZM38.6373 15.1491C37.865 15.1491 37.1971 14.9851 36.6337 14.657C36.0736 14.3255 35.641 13.8648 35.3361 13.2749C35.0312 12.6816 34.8787 11.9938 34.8787 11.2116C34.8787 10.4228 35.0312 9.73343 35.3361 9.14347C35.641 8.55019 36.0736 8.08949 36.6337 7.76136C37.1971 7.42992 37.865 7.2642 38.6373 7.2642C39.4095 7.2642 40.0757 7.42992 40.6358 7.76136C41.1993 8.08949 41.6335 8.55019 41.9384 9.14347C42.2433 9.73343 42.3958 10.4228 42.3958 11.2116C42.3958 11.9938 42.2433 12.6816 41.9384 13.2749C41.6335 13.8648 41.1993 14.3255 40.6358 14.657C40.0757 14.9851 39.4095 15.1491 38.6373 15.1491ZM38.6472 13.5085C38.9985 13.5085 39.2918 13.4091 39.5272 13.2102C39.7625 13.008 39.9398 12.733 40.0591 12.3849C40.1818 12.0369 40.2431 11.6409 40.2431 11.1967C40.2431 10.7526 40.1818 10.3565 40.0591 10.0085C39.9398 9.66051 39.7625 9.38542 39.5272 9.18324C39.2918 8.98106 38.9985 8.87997 38.6472 8.87997C38.2926 8.87997 37.9943 8.98106 37.7523 9.18324C37.5137 9.38542 37.333 9.66051 37.2104 10.0085C37.0911 10.3565 37.0314 10.7526 37.0314 11.1967C37.0314 11.6409 37.0911 12.0369 37.2104 12.3849C37.333 12.733 37.5137 13.008 37.7523 13.2102C37.9943 13.4091 38.2926 13.5085 38.6472 13.5085ZM48.6699 11.7486V7.36364H50.7878V15H48.7544V13.6129H48.6749C48.5025 14.0604 48.2159 14.42 47.8148 14.6918C47.4171 14.9635 46.9315 15.0994 46.3581 15.0994C45.8477 15.0994 45.3986 14.9834 45.0108 14.7514C44.623 14.5194 44.3198 14.1896 44.101 13.7621C43.8856 13.3345 43.7762 12.8224 43.7729 12.2259V7.36364H45.8908V11.848C45.8941 12.2988 46.0151 12.6551 46.2537 12.9169C46.4924 13.1787 46.8122 13.3097 47.2132 13.3097C47.4685 13.3097 47.7071 13.2517 47.9292 13.1357C48.1512 13.0163 48.3302 12.8407 48.4661 12.6087C48.6053 12.3767 48.6732 12.09 48.6699 11.7486ZM55.2958 15.1243C54.7158 15.1243 54.1905 14.9751 53.7198 14.6768C53.2525 14.3752 52.8813 13.9328 52.6062 13.3494C52.3344 12.7628 52.1985 12.0436 52.1985 11.1918C52.1985 10.3168 52.3394 9.58925 52.6211 9.00923C52.9028 8.4259 53.2773 7.99006 53.7447 7.7017C54.2153 7.41004 54.7307 7.2642 55.2908 7.2642C55.7184 7.2642 56.0747 7.33712 56.3597 7.48295C56.6481 7.62547 56.8801 7.80445 57.0558 8.01989C57.2347 8.23201 57.3706 8.44081 57.4634 8.64631H57.5281V4.81818H59.641V15H57.5529V13.777H57.4634C57.364 13.9891 57.2231 14.1996 57.0408 14.4084C56.8619 14.6139 56.6282 14.7846 56.3398 14.9205C56.0548 15.0563 55.7068 15.1243 55.2958 15.1243ZM55.967 13.4389C56.3084 13.4389 56.5967 13.3461 56.832 13.1605C57.0707 12.9716 57.253 12.7081 57.3789 12.37C57.5082 12.032 57.5728 11.6359 57.5728 11.1818C57.5728 10.7277 57.5098 10.3333 57.3839 9.99858C57.2579 9.66383 57.0756 9.4053 56.837 9.22301C56.5984 9.04072 56.3084 8.94957 55.967 8.94957C55.619 8.94957 55.3256 9.04403 55.087 9.23295C54.8484 9.42187 54.6677 9.68371 54.5451 10.0185C54.4225 10.3532 54.3612 10.741 54.3612 11.1818C54.3612 11.6259 54.4225 12.0187 54.5451 12.3601C54.671 12.6982 54.8517 12.9633 55.087 13.1555C55.3256 13.3445 55.619 13.4389 55.967 13.4389ZM63.2615 4.81818L65.7225 12.554H65.8169L68.2828 4.81818H70.6692L67.1593 15H64.3851L60.8702 4.81818H63.2615ZM73.1848 15.1442C72.6976 15.1442 72.2634 15.0597 71.8823 14.8906C71.5011 14.7183 71.1995 14.4647 70.9775 14.13C70.7587 13.7919 70.6493 13.371 70.6493 12.8672C70.6493 12.4429 70.7272 12.0866 70.883 11.7983C71.0388 11.5099 71.2509 11.2779 71.5194 11.1023C71.7878 10.9266 72.0927 10.794 72.4341 10.7045C72.7788 10.6151 73.1401 10.5521 73.5179 10.5156C73.9621 10.4692 74.32 10.4261 74.5918 10.3864C74.8636 10.3433 75.0608 10.2803 75.1834 10.1974C75.306 10.1146 75.3674 9.99195 75.3674 9.82955V9.79972C75.3674 9.48485 75.2679 9.24124 75.0691 9.06889C74.8735 8.89654 74.5951 8.81037 74.2338 8.81037C73.8527 8.81037 73.5494 8.89489 73.324 9.06392C73.0987 9.22964 72.9495 9.43845 72.8766 9.69034L70.9178 9.53125C71.0172 9.06723 71.2128 8.66619 71.5044 8.32812C71.7961 7.98674 72.1723 7.7249 72.633 7.54261C73.097 7.35701 73.6339 7.2642 74.2438 7.2642C74.668 7.2642 75.074 7.31392 75.4618 7.41335C75.8529 7.51278 76.1993 7.6669 76.5009 7.87571C76.8058 8.08452 77.0461 8.35298 77.2218 8.68111C77.3974 9.00592 77.4853 9.39536 77.4853 9.84943V15H75.4767V13.9411H75.4171C75.2944 14.1797 75.1304 14.3902 74.9249 14.5724C74.7194 14.7514 74.4725 14.8923 74.1841 14.995C73.8958 15.0945 73.5627 15.1442 73.1848 15.1442ZM73.7914 13.6825C74.1029 13.6825 74.378 13.6212 74.6167 13.4986C74.8553 13.3726 75.0426 13.2036 75.1784 12.9915C75.3143 12.7794 75.3823 12.5391 75.3823 12.2706V11.4602C75.316 11.5033 75.2248 11.5431 75.1088 11.5795C74.9962 11.6127 74.8685 11.6442 74.726 11.674C74.5835 11.7005 74.441 11.7254 74.2985 11.7486C74.156 11.7685 74.0267 11.7867 73.9107 11.8033C73.6621 11.8397 73.445 11.8977 73.2594 11.9773C73.0738 12.0568 72.9296 12.1645 72.8269 12.3004C72.7241 12.433 72.6728 12.5987 72.6728 12.7976C72.6728 13.0859 72.7772 13.3063 72.986 13.4588C73.1981 13.608 73.4666 13.6825 73.7914 13.6825ZM84.0254 11.7486V7.36364H86.1433V15H84.1099V13.6129H84.0304C83.858 14.0604 83.5713 14.42 83.1703 14.6918C82.7725 14.9635 82.287 15.0994 81.7136 15.0994C81.2032 15.0994 80.7541 14.9834 80.3663 14.7514C79.9785 14.5194 79.6752 14.1896 79.4565 13.7621C79.2411 13.3345 79.1317 12.8224 79.1284 12.2259V7.36364H81.2463V11.848C81.2496 12.2988 81.3706 12.6551 81.6092 12.9169C81.8478 13.1787 82.1677 13.3097 82.5687 13.3097C82.8239 13.3097 83.0626 13.2517 83.2846 13.1357C83.5067 13.0163 83.6857 12.8407 83.8216 12.6087C83.9608 12.3767 84.0287 12.09 84.0254 11.7486ZM89.9553 4.81818V15H87.8374V4.81818H89.9553ZM95.7136 7.36364V8.95455H91.1149V7.36364H95.7136ZM92.1589 5.53409H94.2768V12.6534C94.2768 12.849 94.3066 13.0014 94.3663 13.1108C94.426 13.2169 94.5088 13.2914 94.6149 13.3345C94.7243 13.3776 94.8502 13.3991 94.9927 13.3991C95.0922 13.3991 95.1916 13.3909 95.291 13.3743C95.3904 13.3544 95.4667 13.3395 95.5197 13.3295L95.8528 14.9055C95.7467 14.9387 95.5976 14.9768 95.4054 15.0199C95.2131 15.0663 94.9795 15.0945 94.7044 15.1044C94.194 15.1243 93.7465 15.0563 93.362 14.9006C92.9809 14.7448 92.6842 14.5028 92.4721 14.1747C92.26 13.8466 92.1556 13.4323 92.1589 12.9318V5.53409Z" fill="black"/>
<rect width="18" height="18" rx="2" fill="#2563EB"/>
<g clip-path="url(#clip0_8_50)">
<path d="M8.99999 3.16666L9.06824 3.17075C9.19845 3.1861 9.31969 3.24488 9.4124 3.33759C9.50511 3.4303 9.56389 3.55154 9.57924 3.68175L9.58333 3.75V6.08333L9.58624 6.17083C9.60712 6.4486 9.72669 6.70973 9.92333 6.90702C10.12 7.1043 10.3807 7.22472 10.6584 7.2465L10.75 7.25H13.0833L13.1516 7.25408C13.2818 7.26944 13.403 7.32821 13.4957 7.42092C13.5884 7.51363 13.6472 7.63487 13.6626 7.76508L13.6667 7.83333V13.0833C13.6667 13.5297 13.4961 13.9592 13.1899 14.284C12.8837 14.6088 12.4649 14.8042 12.0193 14.8304L11.9167 14.8333H6.08333C5.63696 14.8334 5.20744 14.6628 4.88268 14.3566C4.55791 14.0504 4.36243 13.6316 4.33624 13.186L4.33333 13.0833V4.91666C4.3333 4.47029 4.50385 4.04078 4.81008 3.71601C5.1163 3.39124 5.53506 3.19577 5.98066 3.16958L6.08333 3.16666H8.99999Z" fill="white"/>
<path d="M13.0833 6.08334H10.75L10.7494 3.74942L13.0833 6.08334Z" fill="white"/>
</g>
<defs>
<clipPath id="clip0_8_50">
<rect width="14" height="14" fill="white" transform="translate(2 2)"/>
</clipPath>
</defs>
</svg>
